<?xml version="1.0" standalone="no"?>
<!DOCTYPE svg PUBLIC "-//W3C//DTD SVG 20010904//EN"
 "http://www.w3.org/TR/2001/REC-SVG-20010904/DTD/svg10.dtd">
<svg version="1.0" xmlns="http://www.w3.org/2000/svg"
 width="980.000000pt" height="888.000000pt" viewBox="0 0 980.000000 888.000000"
 preserveAspectRatio="xMidYMid meet">

<g transform="translate(0.000000,888.000000) scale(0.100000,-0.100000)"
fill="#000000" stroke="none">
<path d="M213 8870 c-53 -11 -75 -23 -125 -68 -62 -56 -83 -104 -83 -192 0
-85 20 -134 77 -190 70 -70 92 -75 393 -78 l270 -3 875 -2667 c481 -1467 948
-2891 1038 -3164 180 -548 185 -560 279 -611 l51 -27 3044 0 c1674 0 3059 4
3078 9 114 26 210 146 210 261 0 86 -64 190 -144 233 l-41 22 -2940 5 -2940 5
-121 365 c-103 310 -118 366 -105 371 9 4 320 32 691 63 686 58 5234 510 5302
527 51 13 117 66 150 119 22 38 76 266 327 1400 l300 1355 -2 115 c-3 95 -7
122 -25 156 -29 56 -77 103 -132 128 l-45 21 -3930 3 -3930 2 -274 838 c-150
460 -285 857 -300 882 -33 55 -104 105 -171 119 -60 13 -713 13 -777 1z"/>
<path d="M3365 1466 c-236 -55 -411 -193 -516 -410 -55 -113 -72 -202 -67
-344 9 -205 70 -345 218 -492 145 -146 309 -214 515 -214 206 0 370 68 515
214 148 148 209 287 218 492 6 146 -13 236 -73 356 -97 191 -244 317 -450 382
-89 28 -272 36 -360 16z"/>
<path d="M7985 1465 c-151 -34 -252 -90 -366 -204 -140 -140 -206 -286 -216
-477 -7 -120 7 -211 47 -312 91 -225 282 -392 518 -449 79 -19 254 -21 327 -4
147 36 273 109 378 221 276 293 268 742 -18 1025 -105 104 -228 170 -373 200
-83 18 -217 18 -297 0z"/>
</g>
</svg>
