<?xml version="1.0" standalone="no"?>
<!DOCTYPE svg PUBLIC "-//W3C//DTD SVG 20010904//EN"
 "http://www.w3.org/TR/2001/REC-SVG-20010904/DTD/svg10.dtd">
<svg version="1.0" xmlns="http://www.w3.org/2000/svg"
 width="500.000000pt" height="500.000000pt" viewBox="0 0 500.000000 500.000000"
 preserveAspectRatio="xMidYMid meet">

<g transform="translate(0.000000,500.000000) scale(0.100000,-0.100000)"
fill="#000000" stroke="none">
<path d="M873 2668 l2 -1623 1623 -2 1622 -3 0 1625 0 1625 -1625 0 -1625 0 3
-1622z m3155 0 l2 -1528 -1530 0 -1530 0 0 1530 0 1530 1528 -2 1527 -3 3
-1527z"/>
<path d="M1590 2810 l0 -890 35 0 35 0 0 813 c1 698 3 809 15 794 7 -11 147
-273 311 -583 l297 -564 39 0 c29 0 39 4 36 14 -2 8 -156 305 -343 660 l-340
646 -42 0 -43 0 0 -890z"/>
<path d="M1770 3693 c0 -4 154 -300 343 -658 l342 -650 43 -3 c23 -2 42 0 41
5 0 4 -154 301 -343 658 l-343 650 -41 3 c-23 2 -42 0 -42 -5z"/>
<path d="M2029 3528 c49 -95 204 -391 345 -658 l255 -485 40 -3 c36 -3 43 0
58 26 10 16 149 277 308 580 l290 550 3 -809 2 -809 40 0 40 0 0 890 0 890
-44 0 -44 0 -323 -615 c-177 -338 -326 -612 -329 -608 -4 5 -151 281 -326 615
l-319 608 -43 0 -44 0 91 -172z"/>
<path d="M2770 3318 c-112 -211 -212 -400 -223 -420 -20 -37 -20 -38 -2 -78
10 -22 21 -40 24 -40 3 0 86 152 183 338 98 185 207 392 243 460 l65 122 -44
0 -44 0 -202 -382z"/>
<path d="M3137 3678 c-8 -13 -119 -223 -247 -468 -128 -245 -242 -462 -253
-482 -20 -37 -20 -38 -2 -78 10 -22 22 -37 26 -33 9 9 569 1071 569 1078 0 3
-18 5 -40 5 -30 0 -43 -5 -53 -22z"/>
<path d="M1740 2608 l0 -688 40 0 40 0 0 614 0 615 -40 73 -40 73 0 -687z"/>
<path d="M3212 3225 l-32 -65 0 -620 0 -620 40 0 40 0 0 685 c0 377 -4 685 -8
685 -4 0 -22 -29 -40 -65z"/>
<path d="M3058 2931 l-38 -69 0 -471 0 -471 40 0 40 0 0 540 c0 297 -1 540 -2
540 -2 0 -20 -31 -40 -69z"/>
<path d="M1900 2458 l0 -538 35 0 35 0 0 473 -1 472 -34 65 -34 65 -1 -537z"/>
<path d="M2050 2313 l0 -393 40 0 40 0 0 323 -1 322 -39 70 -40 70 0 -392z"/>
<path d="M2932 2688 c-5 -7 -21 -36 -36 -65 l-26 -52 0 -326 0 -325 40 0 40 0
0 390 c0 215 -2 390 -4 390 -2 0 -8 -6 -14 -12z"/>
<path d="M1560 1680 c0 -83 1 -90 20 -90 18 0 20 7 21 58 l0 57 22 -42 c11
-24 26 -43 32 -43 6 0 21 19 32 43 l22 42 0 -57 c1 -45 4 -58 16 -58 12 0 15
17 15 91 0 81 -2 90 -17 87 -10 -2 -30 -25 -45 -52 l-26 -49 -26 51 c-18 36
-32 52 -46 52 -18 0 -20 -7 -20 -90z"/>
<path d="M1900 1706 c0 -49 5 -69 21 -90 22 -28 64 -35 99 -16 22 12 40 68 40
128 0 35 -3 42 -20 42 -18 0 -20 -7 -20 -64 0 -71 -14 -92 -54 -82 -27 7 -36
30 -36 99 0 35 -4 47 -15 47 -12 0 -15 -14 -15 -64z"/>
<path d="M2220 1750 c-35 -35 -24 -63 35 -83 21 -8 41 -19 43 -25 6 -18 -28
-26 -59 -15 -21 8 -31 8 -35 1 -12 -19 29 -39 71 -36 31 2 43 9 55 30 13 25
13 29 -3 45 -10 10 -32 23 -50 29 -44 15 -42 39 3 40 53 1 57 3 36 19 -28 21
-72 19 -96 -5z"/>
<path d="M2460 1755 c0 -10 10 -15 30 -15 l30 0 0 -75 c0 -68 2 -75 20 -75 18
0 20 7 20 75 0 73 1 75 25 75 16 0 25 6 25 15 0 12 -15 15 -75 15 -60 0 -75
-3 -75 -15z"/>
<path d="M2776 1693 c-16 -43 -31 -84 -34 -90 -2 -7 4 -13 13 -13 9 0 19 9 22
20 4 15 14 20 39 20 23 0 37 -6 44 -20 12 -22 45 -28 38 -7 -37 108 -65 167
-78 167 -10 0 -26 -27 -44 -77z m58 5 c9 -35 8 -38 -14 -38 -11 0 -20 3 -20 8
0 19 13 52 20 52 4 0 10 -10 14 -22z"/>
<path d="M3040 1680 c0 -83 1 -90 20 -90 16 0 20 7 20 34 0 32 3 35 32 38 46
4 49 28 4 28 -32 0 -36 3 -36 25 0 23 4 25 40 25 29 0 40 4 40 15 0 12 -13 15
-60 15 l-60 0 0 -90z"/>
<path d="M3326 1693 c-16 -43 -31 -84 -34 -90 -2 -7 4 -13 13 -13 9 0 19 9 22
20 4 15 14 20 39 20 23 0 37 -6 44 -20 12 -22 45 -28 38 -7 -37 108 -65 167
-78 167 -10 0 -26 -27 -44 -77z m58 5 c9 -35 8 -38 -14 -38 -11 0 -20 3 -20 8
0 19 13 52 20 52 4 0 10 -10 14 -22z"/>
<path d="M1906 1343 c-16 -43 -31 -84 -34 -90 -2 -7 4 -13 13 -13 9 0 19 9 22
20 4 15 14 20 39 20 23 0 37 -6 44 -20 12 -22 45 -28 38 -7 -37 108 -65 167
-78 167 -10 0 -26 -27 -44 -77z m58 5 c9 -35 8 -38 -14 -38 -11 0 -20 3 -20 8
0 19 13 52 20 52 4 0 10 -10 14 -22z"/>
<path d="M2170 1330 l0 -90 65 0 c51 0 65 3 65 15 0 11 -12 15 -45 15 l-45 0
0 75 c0 68 -2 75 -20 75 -19 0 -20 -7 -20 -90z"/>
<path d="M2420 1405 c0 -10 10 -15 30 -15 l30 0 0 -75 c0 -60 3 -75 15 -75 12
0 15 15 15 75 l0 75 30 0 c20 0 30 5 30 15 0 12 -15 15 -75 15 -60 0 -75 -3
-75 -15z"/>
<path d="M2732 1340 c-18 -45 -32 -85 -32 -91 0 -18 32 -9 37 11 4 15 14 20
40 20 26 0 36 -5 40 -20 3 -11 14 -20 24 -20 11 0 19 1 19 3 0 2 -15 41 -33
88 -19 49 -39 85 -48 87 -11 2 -25 -21 -47 -78z m63 -7 c5 -20 3 -23 -19 -23
-24 0 -24 2 -14 31 11 32 21 29 33 -8z"/>
<path d="M3010 1400 c-35 -35 -24 -63 35 -83 48 -17 54 -42 10 -41 -16 0 -36
2 -44 5 -27 8 -22 -21 6 -33 30 -14 53 -32 53 -43 0 -4 -7 -5 -15 -1 -8 3 -15
1 -15 -4 0 -6 9 -10 20 -10 24 0 39 29 21 40 -9 5 -6 9 8 13 11 3 26 17 33 31
10 23 9 29 -6 44 -9 9 -31 22 -49 28 -44 15 -42 39 3 40 53 1 57 3 36 19 -28
21 -72 19 -96 -5z"/>
</g>
</svg>
